<svg width="92" height="106" viewBox="0 0 92 106" fill="none" xmlns="http://www.w3.org/2000/svg">
<path d="M69.3104 0.931885L91.1882 24.0421V105.07H9.46094V105.356H91.4674V24.333L69.3104 0.931885Z" fill="#909090"/>
<path d="M69.0389 0.643555H9.18164V105.068H91.1881V24.0446L69.0389 0.643555Z" fill="#F4F4F4"/>
<path d="M21.1017 39.2891H0.533203V72.1935H85.3283V39.2891H21.1017Z" fill="#7A7B7C"/>
<path d="M85.3283 72.1935H0.533203V39.2891H85.3283V72.1935Z" fill="#DD2025"/>
<path d="M25.955 44.8462H19.6797V68.0561H24.6346V60.2324L25.7293 60.2952C26.7883 60.2769 27.8374 60.0858 28.8358 59.7295C29.711 59.4262 30.5162 58.9475 31.2028 58.3224C31.8961 57.7252 32.4419 56.9736 32.7968 56.1271C33.2784 54.7176 33.4504 53.2196 33.301 51.7366C33.271 50.6772 33.0866 49.628 32.7536 48.6226C32.4505 47.8968 32.0007 47.2426 31.4328 46.7015C30.8649 46.1604 30.1914 45.7442 29.4551 45.4796C28.8156 45.2452 28.1546 45.0752 27.4818 44.9719C26.9749 44.8931 26.463 44.8511 25.9502 44.8462M25.0427 55.9386H24.6154V48.7822H25.5469C25.9558 48.7525 26.3662 48.8157 26.7477 48.9672C27.1291 49.1187 27.4719 49.3546 27.7507 49.6574C28.3283 50.436 28.637 51.3836 28.6293 52.3555C28.6293 53.545 28.6293 54.6233 27.5634 55.3825C26.7955 55.8078 25.9215 55.9993 25.0475 55.9337M42.6683 44.7833C42.1353 44.7833 41.6168 44.822 41.2519 44.8365L40.1236 44.8655H36.3786V68.0754H40.7862C42.4706 68.1219 44.1476 67.8344 45.7219 67.2292C46.989 66.723 48.1111 65.9071 48.9868 64.855C49.8384 63.7934 50.4495 62.5574 50.7777 61.2333C51.1549 59.7337 51.3388 58.1914 51.325 56.6445C51.4181 54.8175 51.2778 52.986 50.9073 51.195C50.5558 49.8767 49.8974 48.6617 48.9868 47.6507C48.2723 46.8343 47.3977 46.1758 46.4181 45.7165C45.5768 45.3245 44.6918 45.0355 43.7822 44.8558C43.4204 44.7957 43.0541 44.7681 42.6875 44.7736M41.8137 63.8106H41.3335V48.9949H41.3959C42.3858 48.8802 43.3873 49.0601 44.2767 49.5123C44.9281 50.0361 45.4588 50.696 45.8323 51.4465C46.2354 52.2363 46.4678 53.1031 46.5141 53.9899C46.5573 55.0537 46.5141 55.9241 46.5141 56.6445C46.5337 57.4745 46.4806 58.3045 46.3557 59.1251C46.2077 59.9675 45.9341 60.7827 45.5443 61.5428C45.103 62.2495 44.5068 62.845 43.8014 63.2835C43.209 63.6694 42.5075 63.8494 41.804 63.7961M66.1802 44.8655H54.5131V68.0754H59.4488V58.8688H65.6905V54.5556H59.4488V49.1787H66.1706V44.8655" fill="white"/>
<path d="M68.7363 0.949829V24.3509H90.8855L68.7363 0.949829Z" fill="#909090"/>
<path d="M69.0371 0.643555V24.0446H91.1862L69.0371 0.643555Z" fill="#F4F4F4"/>
</svg>
