<svg width="29" height="30" viewBox="0 0 29 30" fill="none" xmlns="http://www.w3.org/2000/svg">
<path fill-rule="evenodd" clip-rule="evenodd" d="M4.83317 5.625H24.1665C26.5022 5.625 28.3957 7.58375 28.3957 10V21.25C28.3957 23.6662 26.5022 25.625 24.1665 25.625H4.83317C2.49747 25.625 0.604004 23.6662 0.604004 21.25V10C0.604004 7.58375 2.49747 5.625 4.83317 5.625ZM26.5832 10C26.5832 8.61929 25.5012 7.5 24.1665 7.5H4.83317C3.49848 7.5 2.4165 8.61929 2.4165 10V21.25C2.4165 22.6307 3.49848 23.75 4.83317 23.75H24.1665C25.5012 23.75 26.5832 22.6307 26.5832 21.25V10ZM22.354 17.8125C22.8545 17.8125 23.2603 18.2322 23.2603 18.75C23.2603 19.2246 22.9193 19.6169 22.477 19.6789L22.354 19.6875H17.5207C17.0202 19.6875 16.6144 19.2678 16.6144 18.75C16.6144 18.2754 16.9554 17.8831 17.3977 17.8211L17.5207 17.8125H22.354ZM23.2603 13.75C23.2603 13.2322 22.8545 12.8125 22.354 12.8125H17.5207L17.3977 12.8211C16.9554 12.8831 16.6144 13.2754 16.6144 13.75C16.6144 14.2678 17.0202 14.6875 17.5207 14.6875H22.354L22.477 14.6789C22.9193 14.6169 23.2603 14.2246 23.2603 13.75ZM12.0832 13.75C12.0832 15.1307 11.0012 16.25 9.6665 16.25C8.33182 16.25 7.24984 15.1307 7.24984 13.75C7.24984 12.3693 8.33182 11.25 9.6665 11.25C11.0012 11.25 12.0832 12.3693 12.0832 13.75ZM7.2915 17.5C6.60115 17.5 6.0415 18.0596 6.0415 18.75C6.0415 19.4404 6.60115 20 7.2915 20H12.0415C12.7319 20 13.2915 19.4404 13.2915 18.75C13.2915 18.0596 12.7319 17.5 12.0415 17.5H7.2915Z" fill="#585858"/>
</svg>
