<svg width="22" height="31" viewBox="0 0 22 31" fill="none" xmlns="http://www.w3.org/2000/svg">
<path fill-rule="evenodd" clip-rule="evenodd" d="M4.3541 0H16.7944C19.1991 0 21.1485 2.04937 21.1485 4.57739V25.5026C21.1485 28.0306 19.1991 30.08 16.7944 30.08H4.3541C1.9494 30.08 0 28.0306 0 25.5026V4.57739C0 2.04937 1.9494 0 4.3541 0ZM19.2823 4.57742C19.2823 3.13284 18.1684 1.96177 16.7942 1.96177H4.35395C2.97983 1.96177 1.86589 3.13284 1.86589 4.57742V20.5981H19.2823V4.57742ZM19.2823 22.5599H1.86589V25.5026C1.86589 26.9472 2.97983 28.1183 4.35395 28.1183H16.7942C18.1684 28.1183 19.2823 26.9472 19.2823 25.5026V22.5599ZM11.8182 25.5025C11.8182 26.2247 11.2612 26.8103 10.5742 26.8103C9.88709 26.8103 9.33012 26.2247 9.33012 25.5025C9.33012 24.7802 9.88709 24.1946 10.5742 24.1946C11.2612 24.1946 11.8182 24.7802 11.8182 25.5025ZM11.8181 3.59644C12.3334 3.59644 12.7511 4.03559 12.7511 4.57731C12.7511 5.07389 12.4001 5.48428 11.9447 5.54923L11.8181 5.55818H9.33003C8.81474 5.55818 8.39701 5.11903 8.39701 4.57731C8.39701 4.08074 8.74801 3.67035 9.20342 3.6054L9.33003 3.59644H11.8181ZM14.3845 9.15467C14.6851 9.15467 14.9288 9.41084 14.9288 9.72685V11.4434C14.9288 11.7594 14.6851 12.0155 14.3845 12.0155C14.0839 12.0155 13.8402 11.7594 13.8402 11.4434V10.299H12.7517C12.4511 10.299 12.2075 10.0428 12.2075 9.72685C12.2075 9.41084 12.4511 9.15467 12.7517 9.15467H14.3845ZM12.2075 12.5878C12.2075 12.2718 12.4511 12.0157 12.7517 12.0157H13.296C13.5966 12.0157 13.8402 12.2718 13.8402 12.5878C13.8402 12.9038 13.5966 13.16 13.296 13.16H12.7517C12.4511 13.16 12.2075 12.9038 12.2075 12.5878ZM9.48618 15.4487C9.48618 15.1327 9.2425 14.8765 8.94191 14.8765C8.64133 14.8765 8.39765 15.1327 8.39765 15.4487V16.0208C8.39765 16.3368 8.64133 16.593 8.94191 16.593C9.2425 16.593 9.48618 16.3368 9.48618 16.0208V15.4487ZM8.94191 17.1653C9.2425 17.1653 9.48618 17.3361 9.48618 17.5468V17.9282C9.48618 18.1389 9.2425 18.3097 8.94191 18.3097C8.64133 18.3097 8.39765 18.1389 8.39765 17.9282V17.5468C8.39765 17.3361 8.64133 17.1653 8.94191 17.1653ZM12.2075 11.4434C12.2075 11.1274 11.9638 10.8713 11.6632 10.8713C11.3626 10.8713 11.119 11.1274 11.119 11.4434V12.0156C11.119 12.3316 11.3626 12.5878 11.6632 12.5878C11.9638 12.5878 12.2075 12.3316 12.2075 12.0156V11.4434ZM6.76449 18.3096C6.4639 18.3096 6.22023 18.0534 6.22023 17.7374V14.8765C6.22023 14.5605 6.4639 14.3044 6.76449 14.3044C7.06508 14.3044 7.30876 14.5605 7.30876 14.8765V17.1652C7.60934 17.1652 7.85302 17.4214 7.85302 17.7374C7.85302 18.0534 7.60934 18.3096 7.30876 18.3096H6.76449ZM7.22016 10.1547H9.57426V12.7321L7.22016 12.7321L7.22016 10.1547ZM6.22016 10.1547C6.22016 9.60242 6.66787 9.15471 7.22016 9.15471H9.57426C10.1265 9.15471 10.5743 9.60242 10.5743 10.1547V12.7321C10.5743 13.2844 10.1265 13.7321 9.57426 13.7321H7.22016C6.66787 13.7321 6.22016 13.2844 6.22016 12.7321V10.1547ZM13.9287 14.7322H11.5746L11.5746 17.3096H13.9287V14.7322ZM11.5746 13.7322C11.0223 13.7322 10.5746 14.18 10.5746 14.7322V17.3096C10.5746 17.8619 11.0223 18.3096 11.5746 18.3096H13.9287C14.481 18.3096 14.9287 17.8619 14.9287 17.3096V14.7322C14.9287 14.18 14.481 13.7322 13.9287 13.7322H11.5746Z" fill="#585858"/>
</svg>
