<svg width="101" height="101" viewBox="0 0 101 101" fill="none" xmlns="http://www.w3.org/2000/svg">
<rect x="8.67969" y="14.2031" width="83.9563" height="59.6531" rx="13.44" fill="url(#paint0_linear_5_5206)"/>
<path opacity="0.7" fill-rule="evenodd" clip-rule="evenodd" d="M22.1196 73.8563H79.1959C82.8531 73.8563 86.1692 72.3955 88.5924 70.0256L59.9011 42.8443C54.7173 37.9334 46.5983 37.9334 41.4145 42.8443L12.7231 70.0256C15.1464 72.3955 18.4624 73.8563 22.1196 73.8563Z" fill="url(#paint1_linear_5_5206)"/>
<path opacity="0.5" fill-rule="evenodd" clip-rule="evenodd" d="M79.1959 14.2031H22.1196C17.3039 14.2031 13.0797 16.7359 10.7065 20.5421L41.4145 49.6338C46.5982 54.5448 54.7173 54.5447 59.901 49.6338L90.6089 20.5421C88.2358 16.7359 84.0116 14.2031 79.1959 14.2031Z" fill="url(#paint2_linear_5_5206)"/>
<path fill-rule="evenodd" clip-rule="evenodd" d="M79.1959 14.2031H22.1197C18.4624 14.2031 15.1464 15.6639 12.7231 18.0338L41.4145 45.2151C46.5983 50.126 54.7173 50.126 59.9011 45.2151L88.5924 18.0338C86.1692 15.6639 82.8531 14.2031 79.1959 14.2031Z" fill="url(#paint3_linear_5_5206)"/>
<g opacity="0.5" filter="url(#filter0_f_5_5206)">
<circle cx="50.6578" cy="74.3297" r="15.15" fill="#000826" fill-opacity="0.44"/>
</g>
<circle cx="50.6578" cy="74.3297" r="15.15" fill="url(#paint4_linear_5_5206)"/>
<g filter="url(#filter1_d_5_5206)">
<path d="M56.0775 69.6496C56.5705 69.1565 57.3699 69.1565 57.8629 69.6496C58.318 70.1047 58.3531 70.8208 57.968 71.3161L57.8629 71.435L50.2879 79.01C49.8328 79.4651 49.1167 79.5001 48.6214 79.115L48.5025 79.01L44.715 75.2225C44.222 74.7295 44.222 73.9301 44.715 73.4371C45.1701 72.982 45.8862 72.9469 46.3815 73.332L46.5004 73.4371L49.3952 76.3308L56.0775 69.6496Z" fill="white"/>
</g>
<defs>
<filter id="filter0_f_5_5206" x="24.6347" y="48.3066" width="52.0461" height="52.0463" filterUnits="userSpaceOnUse" color-interpolation-filters="sRGB">
<feFlood flood-opacity="0" result="BackgroundImageFix"/>
<feBlend mode="normal" in="SourceGraphic" in2="BackgroundImageFix" result="shape"/>
<feGaussianBlur stdDeviation="5.43656" result="effect1_foregroundBlur_5_5206"/>
</filter>
<filter id="filter1_d_5_5206" x="41.3452" y="67.2798" width="19.8877" height="16.1001" filterUnits="userSpaceOnUse" color-interpolation-filters="sRGB">
<feFlood flood-opacity="0" result="BackgroundImageFix"/>
<feColorMatrix in="SourceAlpha" type="matrix" values="0 0 0 0 0 0 0 0 0 0 0 0 0 0 0 0 0 0 127 0" result="hardAlpha"/>
<feOffset dy="1"/>
<feGaussianBlur stdDeviation="1.5"/>
<feColorMatrix type="matrix" values="0 0 0 0 0.000815457 0 0 0 0 0.563094 0 0 0 0 0.402443 0 0 0 0.272946 0"/>
<feBlend mode="normal" in2="BackgroundImageFix" result="effect1_dropShadow_5_5206"/>
<feBlend mode="normal" in="SourceGraphic" in2="effect1_dropShadow_5_5206" result="shape"/>
</filter>
<linearGradient id="paint0_linear_5_5206" x1="8.67969" y1="14.2031" x2="8.67969" y2="73.8562" gradientUnits="userSpaceOnUse">
<stop stop-color="#FFD755"/>
<stop offset="1" stop-color="#FFAA00"/>
</linearGradient>
<linearGradient id="paint1_linear_5_5206" x1="12.7232" y1="39.1611" x2="12.7232" y2="73.8563" gradientUnits="userSpaceOnUse">
<stop stop-color="#FFBE27"/>
<stop offset="1" stop-color="#FF8F1C"/>
</linearGradient>
<linearGradient id="paint2_linear_5_5206" x1="10.7066" y1="14.2031" x2="10.7066" y2="53.317" gradientUnits="userSpaceOnUse">
<stop stop-color="#FFBE27"/>
<stop offset="1" stop-color="#FF8F1C"/>
</linearGradient>
<linearGradient id="paint3_linear_5_5206" x1="12.7231" y1="14.2031" x2="12.7231" y2="48.8983" gradientUnits="userSpaceOnUse">
<stop stop-color="#FFE695"/>
<stop offset="1" stop-color="#FFCF2A"/>
</linearGradient>
<linearGradient id="paint4_linear_5_5206" x1="35.5078" y1="59.1797" x2="35.5078" y2="89.4797" gradientUnits="userSpaceOnUse">
<stop stop-color="#09E6A7"/>
<stop offset="1" stop-color="#05C991"/>
</linearGradient>
</defs>
</svg>
