<svg width="29" height="30" viewBox="0 0 29 30" fill="none" xmlns="http://www.w3.org/2000/svg">
<path fill-rule="evenodd" clip-rule="evenodd" d="M4.83317 5.625H24.1665C26.5022 5.625 28.3957 7.58375 28.3957 10V21.25C28.3957 23.6662 26.5022 25.625 24.1665 25.625H4.83317C2.49747 25.625 0.604004 23.6662 0.604004 21.25V10C0.604004 7.58375 2.49747 5.625 4.83317 5.625ZM26.5832 10C26.5832 8.61929 25.5012 7.5 24.1665 7.5H4.83317C3.49848 7.5 2.4165 8.61929 2.4165 10V21.25C2.4165 22.6307 3.49848 23.75 4.83317 23.75H24.1665C25.5012 23.75 26.5832 22.6307 26.5832 21.25V10ZM10.5728 18.75C11.0733 18.75 11.479 19.1697 11.479 19.6875C11.479 20.1621 11.1381 20.5544 10.6957 20.6164L10.5728 20.625H5.73942C5.23891 20.625 4.83317 20.2053 4.83317 19.6875C4.83317 19.2129 5.17411 18.8206 5.61645 18.7586L5.73942 18.75H10.5728ZM11.479 14.6875C11.479 14.1697 11.0733 13.75 10.5728 13.75H5.73942L5.61645 13.7586C5.17411 13.8206 4.83317 14.2129 4.83317 14.6875C4.83317 15.2053 5.23891 15.625 5.73942 15.625H10.5728L10.6957 15.6164C11.1381 15.5544 11.479 15.1621 11.479 14.6875Z" fill="#585858"/>
<path fill-rule="evenodd" clip-rule="evenodd" d="M23.5561 14.76C23.4356 12.4553 21.591 10.625 19.3332 10.625C16.9975 10.625 15.104 12.5838 15.104 15V19.3958C15.104 19.7295 15.3745 20 15.7082 20C16.0418 20 16.3123 19.7295 16.3123 19.3958V15L16.3188 14.7945C16.421 13.1644 17.7315 11.875 19.3332 11.875C21.0015 11.875 22.354 13.2741 22.354 15V19.3958C22.354 19.7295 22.6245 20 22.9582 20C23.2918 20 23.5623 19.7295 23.5623 19.3958V15L23.5561 14.76ZM21.1374 14.8194C21.0495 13.8686 20.2753 13.125 19.3332 13.125C18.3322 13.125 17.5207 13.9645 17.5207 15V20.6458C17.5207 20.9795 17.7912 21.25 18.1248 21.25C18.4585 21.25 18.729 20.9795 18.729 20.6458V15L18.7387 14.8877C18.7899 14.5961 19.0366 14.375 19.3332 14.375C19.6668 14.375 19.9373 14.6548 19.9373 15V20.6458C19.9373 20.9795 20.2078 21.25 20.5415 21.25C20.8752 21.25 21.1457 20.9795 21.1457 20.6458V15L21.1374 14.8194Z" fill="#585858"/>
</svg>
