<svg width="24" height="24" viewBox="0 0 24 24" fill="none" xmlns="http://www.w3.org/2000/svg">
<path fill-rule="evenodd" clip-rule="evenodd" d="M16.9283 4.48797H6.69866C6.58096 4.48797 6.48554 4.58387 6.48554 4.70218V19.6969C6.48554 19.8152 6.58096 19.9111 6.69866 19.9111H16.9283C17.046 19.9111 17.1414 19.8152 17.1414 19.6969V4.70218C17.1414 4.58387 17.046 4.48797 16.9283 4.48797ZM6.69866 3.84534C6.22785 3.84534 5.84619 4.22896 5.84619 4.70218V19.6969C5.84619 20.1701 6.22785 20.5537 6.69866 20.5537H16.9283C17.3991 20.5537 17.7808 20.1701 17.7808 19.6969V4.70218C17.7808 4.22896 17.3991 3.84534 16.9283 3.84534H6.69866Z" fill="#274A79"/>
<path fill-rule="evenodd" clip-rule="evenodd" d="M6.69882 4.02937C6.33051 4.02937 6.03034 4.32972 6.03034 4.70221V19.6969C6.03034 20.0694 6.33052 20.3698 6.69882 20.3698H16.9284C17.2967 20.3698 17.5969 20.0694 17.5969 19.6969V4.70221C17.5969 4.32972 17.2967 4.02937 16.9284 4.02937H6.69882ZM5.66235 4.70221C5.66235 4.12826 6.12551 3.66138 6.69882 3.66138H16.9284C17.5017 3.66138 17.9649 4.12826 17.9649 4.70221V19.6969C17.9649 20.2709 17.5017 20.7377 16.9284 20.7377H6.69882C6.12551 20.7377 5.66235 20.2709 5.66235 19.6969V4.70221ZM6.69882 4.672C6.68362 4.672 6.66969 4.68464 6.66969 4.70221V19.6969C6.66969 19.7145 6.68362 19.7271 6.69882 19.7271H16.9284C16.9436 19.7271 16.9576 19.7145 16.9576 19.6969V4.70221C16.9576 4.68464 16.9436 4.672 16.9284 4.672H6.69882ZM6.3017 4.70221C6.3017 4.48318 6.47861 4.30401 6.69882 4.30401H16.9284C17.1486 4.30401 17.3256 4.48318 17.3256 4.70221V19.6969C17.3256 19.9159 17.1486 20.0951 16.9284 20.0951H6.69882C6.47861 20.0951 6.3017 19.9159 6.3017 19.6969V4.70221Z" fill="#274A79"/>
<path fill-rule="evenodd" clip-rule="evenodd" d="M14.2026 7.37793C14.3693 7.37793 14.5044 7.52179 14.5044 7.69924V14.1255C14.5044 14.303 14.3693 14.4469 14.2026 14.4469C14.0359 14.4469 13.9007 14.303 13.9007 14.1255V7.69924C13.9007 7.52179 14.0359 7.37793 14.2026 7.37793ZM12.0075 7.37793C12.1742 7.37793 12.3093 7.52179 12.3093 7.69924V16.6961C12.3093 16.8735 12.1742 17.0174 12.0075 17.0174C11.8408 17.0174 11.7057 16.8735 11.7057 16.6961V7.69924C11.7057 7.52179 11.8408 7.37793 12.0075 7.37793ZM9.8124 7.37793C9.9791 7.37793 10.1142 7.52179 10.1142 7.69924V16.6961C10.1142 16.8735 9.9791 17.0174 9.8124 17.0174C9.64571 17.0174 9.51058 16.8735 9.51058 16.6961V7.69924C9.51058 7.52179 9.64571 7.37793 9.8124 7.37793Z" fill="#274A79"/>
<path fill-rule="evenodd" clip-rule="evenodd" d="M14.2024 7.19397C14.4814 7.19397 14.6882 7.43122 14.6882 7.69928V14.1256C14.6882 14.3936 14.4814 14.6309 14.2024 14.6309C13.9234 14.6309 13.7166 14.3936 13.7166 14.1256V7.69928C13.7166 7.43122 13.9234 7.19397 14.2024 7.19397ZM14.3202 7.69928C14.3202 7.61242 14.2568 7.56196 14.2024 7.56196C14.148 7.56196 14.0846 7.61242 14.0846 7.69928V14.1256C14.0846 14.2124 14.148 14.2629 14.2024 14.2629C14.2568 14.2629 14.3202 14.2124 14.3202 14.1256V7.69928ZM12.0073 7.19397C12.2863 7.19397 12.4931 7.43122 12.4931 7.69928V16.6961C12.4931 16.9642 12.2863 17.2014 12.0073 17.2014C11.7283 17.2014 11.5215 16.9642 11.5215 16.6961V7.69928C11.5215 7.43122 11.7283 7.19397 12.0073 7.19397ZM12.1252 7.69928C12.1252 7.61242 12.0617 7.56196 12.0073 7.56196C11.9529 7.56196 11.8895 7.61242 11.8895 7.69928V16.6961C11.8895 16.783 11.9529 16.8334 12.0073 16.8334C12.0617 16.8334 12.1252 16.783 12.1252 16.6961V7.69928ZM9.81225 7.19397C10.0912 7.19397 10.2981 7.43122 10.2981 7.69928V16.6961C10.2981 16.9642 10.0912 17.2014 9.81225 17.2014C9.53326 17.2014 9.32643 16.9642 9.32643 16.6961V7.69928C9.32643 7.43122 9.53326 7.19397 9.81225 7.19397ZM9.93008 7.69928C9.93008 7.61242 9.86665 7.56196 9.81225 7.56196C9.75785 7.56196 9.69442 7.61242 9.69442 7.69928V16.6961C9.69442 16.783 9.75785 16.8334 9.81225 16.8334C9.86665 16.8334 9.93008 16.783 9.93008 16.6961V7.69928Z" fill="#274A79"/>
<path fill-rule="evenodd" clip-rule="evenodd" d="M3 1.45999C3 1.20594 3.20594 1 3.45999 1H6.44363V1.91997H3.91997V4.44363H3V1.45999Z" fill="#274A79"/>
<path fill-rule="evenodd" clip-rule="evenodd" d="M19.5713 1C19.8253 1 20.0312 1.20594 20.0312 1.45999L20.0312 4.44363L19.1113 4.44363L19.1113 1.91997L16.5876 1.91997L16.5876 1L19.5713 1Z" fill="#274A79"/>
<path fill-rule="evenodd" clip-rule="evenodd" d="M20.0313 23.54C20.0313 23.7941 19.8253 24 19.5713 24L16.5876 24L16.5876 23.08L19.1113 23.08L19.1113 20.5564L20.0313 20.5564L20.0313 23.54Z" fill="#274A79"/>
<path fill-rule="evenodd" clip-rule="evenodd" d="M3.45999 24C3.20594 24 3 23.7941 3 23.54L3 20.5564L3.91997 20.5564L3.91997 23.08L6.44363 23.08L6.44363 24L3.45999 24Z" fill="#274A79"/>
</svg>
