<svg width="68" height="52" viewBox="0 0 68 52" fill="none" xmlns="http://www.w3.org/2000/svg">
<path d="M1 29.2072V46.011C1 48.7671 2.95325 51 5.3643 51H63.3024C65.7134 51 67.6667 48.7671 67.6667 46.011V5.98902C67.6667 3.23285 65.7134 1 63.3024 1H5.3643C2.95325 1 1 3.23285 1 5.98902V29.2072Z" fill="#DCE8E4" stroke="#AFC4BD" stroke-width="0.3" stroke-linecap="round" stroke-linejoin="round"/>
<rect x="31" y="29.334" width="28.3333" height="3.33333" rx="0.25" fill="#8F969C"/>
<rect x="37.6665" y="36" width="21.6667" height="3.33333" rx="0.25" fill="#8F969C"/>
<path d="M7.6665 19.3333C7.6665 14.731 11.3975 11 15.9998 11H49.3332V19.3333H7.6665Z" fill="#3EB3F3"/>
<path d="M7.37842 27.0479C7.37842 25.9433 8.27385 25.0479 9.37842 25.0479H20.9929C22.0975 25.0479 22.9929 25.9433 22.9929 27.0479V40.6669C22.9929 41.7715 22.0975 42.6669 20.9929 42.6669H9.37842C8.27385 42.6669 7.37842 41.7715 7.37842 40.6669V27.0479Z" fill="white"/>
<path d="M7.42842 27.0479C7.42842 25.9709 8.30146 25.0979 9.37842 25.0979H20.9929C22.0699 25.0979 22.9429 25.9709 22.9429 27.0479V40.6669C22.9429 41.7438 22.0699 42.6169 20.9929 42.6169H9.37842C8.30146 42.6169 7.42842 41.7439 7.42842 40.6669V27.0479Z" stroke="#ACABA9" stroke-opacity="0.7" stroke-width="0.1" stroke-linejoin="round"/>
<path d="M20.7506 15.5242C20.7506 17.7372 19.0082 19.5191 16.8736 19.5191C14.739 19.5191 12.9966 17.7372 12.9966 15.5242C12.9966 13.3112 14.739 11.5293 16.8736 11.5293C19.0082 11.5293 20.7506 13.3112 20.7506 15.5242Z" fill="#0766E6" stroke="#246C94" stroke-width="0.5"/>
<path d="M54.3335 11H59.3335V19.3333H54.3335V11Z" fill="#3EB3F3"/>
<mask id="mask0_70_6026" style="mask-type:alpha" maskUnits="userSpaceOnUse" x="6" y="25" width="19" height="17">
<path d="M6 26.8337C6 26.0053 6.67157 25.3337 7.5 25.3337H22.8333C23.6618 25.3337 24.3333 26.0053 24.3333 26.8337V40.3337C24.3333 41.1622 23.6618 41.8337 22.8333 41.8337H7.5C6.67157 41.8337 6 41.1622 6 40.3337V26.8337Z" fill="#EDEFD2"/>
<path d="M6.05 26.8337C6.05 26.0329 6.69919 25.3837 7.5 25.3837H22.8333C23.6341 25.3837 24.2833 26.0329 24.2833 26.8337V40.3337C24.2833 41.1346 23.6341 41.7837 22.8333 41.7837H7.5C6.69919 41.7837 6.05 41.1346 6.05 40.3337V26.8337Z" stroke="#ACABA9" stroke-opacity="0.7" stroke-width="0.1" stroke-linejoin="round"/>
</mask>
<g mask="url(#mask0_70_6026)">
<path d="M16.1755 42.1894C16.4736 42.1444 16.7415 43.8355 17.0354 43.7729C18.3018 43.5043 19.8776 45.1363 20.6665 44.2285C20.0133 40.0335 20.9471 33.2587 19.6244 30.9003C19.4142 30.5255 19.1414 30.1599 18.7364 29.9391C18.3967 29.7542 18.0065 29.6311 17.6078 29.5974C17.4608 29.5847 17.1831 29.577 16.8829 29.6431C16.2922 29.7732 16.1698 29.5636 15.6311 29.1938C15.0924 28.824 14.5536 28.7342 14.0149 28.824C12.9374 29.0036 12.1331 29.3681 11.451 29.8146C10.4258 30.4848 9.8422 31.4966 9.73673 32.9296C9.70087 33.4183 9.87244 43.5416 9.72689 44.0085C9.50539 44.7186 9.89845 43.6955 10.821 44.1062C12.1549 44.7004 10.5749 43.8144 12.055 44.0077L16.1762 42.1908L16.1755 42.1894Z" fill="#594F45"/>
<path d="M17.5605 43.1588C16.47 44.8822 13.9435 44.8963 12.8494 43.1757C12.5105 42.642 12.2736 42.1505 12.1217 41.7947L12.5949 41.6597C13.2101 41.4178 13.6278 40.9122 13.6897 40.3342L13.7347 39.4883L16.5803 39.4019L16.6907 40.3342C16.7526 40.9122 17.5057 41.4185 18.121 41.6597L18.3052 41.7321C18.1568 42.0886 17.9149 42.6005 17.5612 43.1595L17.5605 43.1588Z" fill="#DA9F8E"/>
<path d="M13.6899 39.7705L13.7349 38.9246L16.5805 38.8381L16.6909 39.7705C16.577 39.8718 15.9266 40.4294 14.9865 40.3443C14.2967 40.2817 13.8425 39.9083 13.6899 39.7705Z" fill="#964436"/>
<path d="M11.781 34.2813C13.9953 33.9754 15.609 33.2272 16.1532 32.2407C16.3283 32.5782 17.0111 33.6906 18.4406 33.7166C18.4694 34.4908 18.4975 35.8022 18.3794 36.57C18.2613 37.3379 17.9877 38.1015 17.4646 38.7259C17.2269 39.0093 16.9471 39.2589 16.6328 39.467C15.7581 40.0464 14.5648 40.0527 13.6732 39.4937C13.3329 39.28 13.0305 39.0212 12.7823 38.7252C12.2585 38.1008 11.9857 37.3372 11.8675 36.5693C11.7494 35.8015 11.7522 35.0547 11.781 34.2799V34.2813Z" fill="#DA9F8E"/>
</g>
</svg>
