<svg width="30" height="30" viewBox="0 0 30 30" fill="none" xmlns="http://www.w3.org/2000/svg">
<path d="M23.5466 25.8875H6.35275C5.70131 25.8875 5.07655 25.6287 4.61591 25.1681C4.15527 24.7074 3.89648 24.0827 3.89648 23.4312V6.23739C3.89648 5.58595 4.15527 4.96119 4.61591 4.50055C5.07655 4.03991 5.70131 3.78113 6.35275 3.78113H23.5466C24.198 3.78113 24.8228 4.03991 25.2834 4.50055C25.7441 4.96119 26.0028 5.58595 26.0028 6.23739V23.4312C26.0028 24.0827 25.7441 24.7074 25.2834 25.1681C24.8228 25.6287 24.198 25.8875 23.5466 25.8875ZM10.6696 17.0449C10.574 17.0435 10.4795 17.065 10.394 17.1078C10.3085 17.1505 10.2345 17.2132 10.1784 17.2906L7.12647 21.2206C7.05503 21.311 7.01047 21.4197 6.99788 21.5342C6.98529 21.6487 7.00517 21.7645 7.05526 21.8683C7.10535 21.972 7.18362 22.0596 7.28113 22.121C7.37864 22.1824 7.49145 22.2151 7.60667 22.2154H22.3307C22.4453 22.2153 22.5575 22.1831 22.6547 22.1226C22.752 22.062 22.8303 21.9755 22.8809 21.8727C22.9327 21.7714 22.9545 21.6574 22.9439 21.5441C22.9332 21.4307 22.8905 21.3228 22.8208 21.2329L18.5112 15.4852C18.455 15.4082 18.3816 15.3454 18.2969 15.3017C18.2121 15.258 18.1184 15.2346 18.0231 15.2334C17.9277 15.2322 17.8334 15.2533 17.7476 15.2948C17.6618 15.3364 17.5869 15.3974 17.5287 15.4729L13.7215 20.3732L11.1425 17.266C11.0847 17.1967 11.0124 17.1409 10.9307 17.1027C10.849 17.0645 10.7598 17.0448 10.6696 17.0449Z" fill="#CBD6DF"/>
</svg>
