<svg width="158" height="127" viewBox="0 0 158 127" fill="none" xmlns="http://www.w3.org/2000/svg">
<path fill-rule="evenodd" clip-rule="evenodd" d="M91.4319 4.79224H116.098V29.4585H91.4319V4.79224ZM95.5429 25.3475H111.987V8.90329H95.5429V25.3475ZM107.876 13.0142H99.654V21.2363H107.876V13.0142ZM116.098 45.9026V70.5689H91.4319V45.9026H116.098ZM111.987 50.0137H95.5429V66.4579H111.987V50.0137ZM99.6552 54.1248H107.877V62.3469H99.6552V54.1248ZM157.21 4.79224H132.544V29.4585H157.21V4.79224ZM153.099 25.3475H136.655V8.90329H153.099V25.3475ZM148.987 13.0143H140.764V21.2364H148.987V13.0143ZM91.4319 33.5696H99.654V37.6806H103.765V41.7917H91.4319V33.5696ZM111.987 37.6806H103.765V33.5696H111.987V37.6806ZM120.209 33.5696H116.098V37.6806H111.987V41.7917H120.209V50.0138H128.431V54.1248H120.209V58.2359H124.32V62.3469H120.209V70.569H124.32V62.3469H128.431V70.569H136.653V62.3469H140.764V70.569H144.876V62.3469H140.764V58.2359H148.987V70.569H157.209V62.3469H153.098V58.2359H148.987V54.1248H140.764V58.2359H136.653V54.1248H132.542V50.0138H144.876V41.7917H136.653V33.5696H124.32V29.4585H128.431V21.2364H124.32V17.1254H128.431V8.90329H124.32V4.79224H120.209V21.2364H124.32V29.4585H120.209V33.5696ZM120.209 33.5696V41.7917H128.431V50.0138H132.542V45.9027H136.653V41.7917H128.431V37.6806H124.32V33.5696H120.209ZM132.542 54.1248V58.2359H136.653V62.3469H128.431V58.2359V54.1248H132.542ZM148.987 50.0138V45.9027H153.098H157.209V54.1248H153.098V50.0138H148.987ZM140.764 37.6806V33.5696H148.987H157.209V41.7917H148.987V37.6806H140.764Z" fill="#333333"/>
<path d="M0 34.8074V55.1888C0 58.5317 2.36464 61.24 5.28349 61.24H75.4241C78.3429 61.24 80.7076 58.5317 80.7076 55.1888V6.64594C80.7076 3.30296 78.3429 0.594727 75.4241 0.594727H5.28349C2.36464 0.594727 0 3.30296 0 6.64594V34.8074Z" fill="#C8EFB0"/>
<path d="M18.1943 30.397C18.1943 29.5685 18.8659 28.897 19.6943 28.897H36.9094C37.7379 28.897 38.4094 29.5685 38.4094 30.397V45.5906C38.4094 46.419 37.7379 47.0905 36.9094 47.0905H19.6943C18.8659 47.0905 18.1943 46.419 18.1943 45.5905V30.397Z" fill="#F1F1F1"/>
<path d="M18.2443 30.397C18.2443 29.5962 18.8935 28.947 19.6943 28.947H36.9094C37.7102 28.947 38.3594 29.5962 38.3594 30.397V45.5906C38.3594 46.3914 37.7102 47.0406 36.9094 47.0406H19.6943C18.8935 47.0406 18.2443 46.3914 18.2443 45.5905V30.397Z" stroke="#ACABA9" stroke-opacity="0.7" stroke-width="0.1" stroke-linejoin="round"/>
<path d="M0 10.7014H6.06453C6.06453 10.7014 3.68509 12.2561 3.68509 14.7757C3.68509 17.2953 6.06453 18.7875 6.06453 18.7875H0V10.7014Z" fill="#4B4B4B"/>
<path d="M80.8611 10.7014H14.1513C14.1513 10.7014 16.7228 12.2561 16.7228 14.7757C16.7228 17.2953 14.1513 18.7875 14.1513 18.7875H80.8611C80.8611 18.7875 80.8611 17.9619 80.8611 14.7757C80.8611 11.8272 80.8611 10.7014 80.8611 10.7014Z" fill="#4B4B4B"/>
<path d="M59.248 15.0277L58.4249 14.4599C58.2139 14.7658 58.1899 15.1635 58.3627 15.4926C58.5354 15.8216 58.8764 16.0277 59.248 16.0277V15.0277ZM62.7678 9.9248V8.9248H62.2427L61.9446 9.35701L62.7678 9.9248ZM66.6784 9.9248L67.4886 9.3387L67.1892 8.9248H66.6784V9.9248ZM69.8073 14.2502L68.997 14.8363L69.2965 15.2502H69.8073V14.2502ZM73.7096 14.2502L74.5276 14.8254C74.7423 14.5201 74.7691 14.1206 74.5971 13.7893C74.4251 13.4581 74.0829 13.2502 73.7096 13.2502V14.2502ZM70.1899 19.2548V20.2548C70.5154 20.2548 70.8206 20.0964 71.0078 19.8301L70.1899 19.2548ZM66.3558 19.2548L65.5934 19.902C65.7834 20.1258 66.0622 20.2548 66.3558 20.2548V19.2548ZM62.7678 15.0277L63.5302 14.3806L63.2307 14.0277H62.7678V15.0277ZM60.0712 15.5955L63.591 10.4926L61.9446 9.35701L58.4249 14.4599L60.0712 15.5955ZM62.7678 10.9248H66.6784V8.9248H62.7678V10.9248ZM65.8682 10.5109L68.997 14.8363L70.6175 13.6641L67.4886 9.3387L65.8682 10.5109ZM69.8073 15.2502H73.7096V13.2502H69.8073V15.2502ZM72.8916 13.6749L69.3719 18.6796L71.0078 19.8301L74.5276 14.8254L72.8916 13.6749ZM70.1899 18.2548H66.3558V20.2548H70.1899V18.2548ZM67.1182 18.6077L63.5302 14.3806L62.0054 15.6748L65.5934 19.902L67.1182 18.6077ZM62.7678 14.0277H59.248V16.0277H62.7678V14.0277Z" fill="#C8EFB0"/>
<path fill-rule="evenodd" clip-rule="evenodd" d="M7.39691 16.3607C8.00003 17.2705 8.9886 17.8633 10.1045 17.8633C11.2205 17.8633 12.2091 17.2705 12.8122 16.3607H7.39691ZM6.39362 16.3607C6.25301 16.07 6.14098 15.7606 6.06152 15.437H10.1045H14.1476C14.0681 15.7606 13.9561 16.07 13.8155 16.3607C13.1181 17.8025 11.7181 18.787 10.1045 18.787C8.49103 18.787 7.09095 17.8025 6.39362 16.3607Z" fill="#4B4B4B"/>
<path d="M13.214 14.0509C13.214 15.901 11.8219 17.4008 10.1045 17.4008C8.3872 17.4008 6.99503 15.901 6.99503 14.0509C6.99503 12.2007 8.3872 10.7009 10.1045 10.7009C11.8219 10.7009 13.214 12.2007 13.214 14.0509Z" fill="#4B4B4B"/>
<path fill-rule="evenodd" clip-rule="evenodd" d="M10.1045 17.4008C11.8219 17.4008 13.214 15.901 13.214 14.0509C13.214 12.2007 11.8219 10.7009 10.1045 10.7009C8.3872 10.7009 6.99503 12.2007 6.99503 14.0509C6.99503 15.901 8.3872 17.4008 10.1045 17.4008Z" fill="#4B4B4B"/>
<path d="M13.3146 16.0986H6.89331L7.25005 16.998L8.43917 17.8974L9.98503 18.4114L11.8876 17.8974L12.9578 16.998L13.3146 16.0986Z" fill="#4B4B4B"/>
<rect x="42.4507" y="32.939" width="30.3226" height="4.04302" rx="0.25" fill="#727272"/>
<rect x="50.5371" y="41.0251" width="22.2366" height="4.04302" rx="0.25" fill="#727272"/>
<rect x="8.08643" y="47.0886" width="18.1936" height="4.04302" rx="0.25" transform="rotate(-90 8.08643 47.0886)" fill="#A8A6A6"/>
<mask id="mask0_2288_397" style="mask-type:alpha" maskUnits="userSpaceOnUse" x="18" y="28" width="21" height="20">
<path d="M18.1877 30.3977C18.1877 29.5693 18.8593 28.8977 19.6877 28.8977H36.9028C37.7313 28.8977 38.4028 29.5693 38.4028 30.3977V45.5913C38.4028 46.4197 37.7313 47.0913 36.9028 47.0913H19.6877C18.8593 47.0913 18.1877 46.4197 18.1877 45.5913V30.3977Z" fill="#F1F1F1"/>
<path d="M18.2377 30.3977C18.2377 29.5969 18.8869 28.9477 19.6877 28.9477H36.9028C37.7036 28.9477 38.3528 29.5969 38.3528 30.3977V45.5913C38.3528 46.3921 37.7036 47.0413 36.9028 47.0413H19.6877C18.8869 47.0413 18.2377 46.3921 18.2377 45.5913V30.3977Z" stroke="#ACABA9" stroke-opacity="0.7" stroke-width="0.1" stroke-linejoin="round"/>
</mask>
<g mask="url(#mask0_2288_397)">
<path d="M29.4081 47.4828C29.7369 47.4331 30.0323 49.2978 30.3563 49.2288C31.7527 48.9326 33.4902 50.7321 34.3601 49.7312C33.6398 45.1056 34.6695 37.6354 33.2111 35.035C32.9793 34.6217 32.6784 34.2185 32.2318 33.9751C31.8574 33.7712 31.4271 33.6355 30.9875 33.5983C30.8254 33.5843 30.5192 33.5758 30.1881 33.6487C29.5368 33.7921 29.4019 33.561 28.8079 33.1533C28.2138 32.7455 27.6198 32.6466 27.0258 32.7455C25.8377 32.9435 24.9508 33.3455 24.1987 33.8379C23.0683 34.5767 22.4248 35.6924 22.3085 37.2725C22.2689 37.8114 22.4581 48.9737 22.2976 49.4885C22.0534 50.2716 22.4868 49.1435 23.504 49.5963C24.9748 50.2514 23.2327 49.2745 24.8647 49.4877L29.4089 47.4843L29.4081 47.4828Z" fill="#594F45"/>
<path d="M30.9367 48.5534C29.7342 50.4538 26.9485 50.4693 25.7421 48.572C25.3684 47.9836 25.1071 47.4416 24.9396 47.0493L25.4614 46.9004C26.1398 46.6337 26.6004 46.0763 26.6686 45.439L26.7182 44.5063L29.8559 44.4109L29.9777 45.439C30.0459 46.0763 30.8763 46.6345 31.5547 46.9004L31.7578 46.9803C31.5942 47.3734 31.3275 47.9378 30.9375 48.5542L30.9367 48.5534Z" fill="#DA9F8E"/>
<path d="M26.6655 44.8157L26.7152 43.883L29.8529 43.7876L29.9746 44.8157C29.849 44.9273 29.1318 45.5422 28.0952 45.4483C27.3346 45.3793 26.8338 44.9676 26.6655 44.8157Z" fill="#964436"/>
<path d="M24.5622 38.7634C27.0037 38.4261 28.783 37.6012 29.3831 36.5134C29.5762 36.8856 30.329 38.1121 31.9053 38.1408C31.9371 38.9945 31.9681 40.4404 31.8378 41.2871C31.7076 42.1337 31.406 42.9757 30.8291 43.6642C30.5671 43.9767 30.2585 44.2519 29.9119 44.4814C28.9474 45.1203 27.6317 45.1273 26.6486 44.5109C26.2733 44.2752 25.9399 43.9899 25.6662 43.6635C25.0886 42.975 24.7878 42.133 24.6575 41.2863C24.5273 40.4397 24.5304 39.6163 24.5622 38.7619V38.7634Z" fill="#DA9F8E"/>
</g>
<path d="M0.0012207 99.6501V120.032C0.0012207 123.375 2.36586 126.083 5.28471 126.083H75.4253C78.3442 126.083 80.7088 123.375 80.7088 120.032V71.4887C80.7088 68.1457 78.3442 65.4375 75.4253 65.4375H5.28471C2.36586 65.4375 0.0012207 68.1457 0.0012207 71.4887V99.6501Z" fill="#C8EFB0"/>
<rect x="22.2388" y="97.7817" width="18.1936" height="4.04302" rx="0.25" fill="#4D4D4D"/>
<rect x="52.5627" y="97.7817" width="18.1936" height="4.04302" rx="0.25" fill="#4D4D4D"/>
<path d="M8.33765 89.6965C8.19958 89.6965 8.08765 89.5846 8.08765 89.4465V76.546C8.08765 75.9937 8.53536 75.546 9.08765 75.546H11.8807C12.0187 75.546 12.1307 75.6579 12.1307 75.796V89.4465C12.1307 89.5846 12.0187 89.6965 11.8807 89.6965H8.33765Z" fill="#4B4B4B"/>
<path d="M23.7375 77.0457H60.7538C65.4482 77.0457 69.2538 80.8512 69.2538 85.5457V88.1962H23.7375V77.0457Z" stroke="#727272" stroke-opacity="0.7" stroke-width="3"/>
</svg>
