<svg width="24" height="24" viewBox="0 0 24 24" fill="none" xmlns="http://www.w3.org/2000/svg">
<path fill-rule="evenodd" clip-rule="evenodd" d="M4.66171 3.02231C4.66171 2.26876 5.27169 1.66 6.02316 1.66H15.3308C16.0823 1.66 16.6923 2.26876 16.6923 3.02231V3.5386H4.66171V3.02231ZM16.6923 6.83V4.1986H4.66171V19.6154H16.6923V16.9838C16.6923 16.8016 16.8404 16.6538 17.0231 16.6538C17.2059 16.6538 17.354 16.8016 17.354 16.9838V19.9454V20.7915C17.354 21.908 16.4494 22.8138 15.3308 22.8138H6.02316C4.90463 22.8138 4 21.908 4 20.7915V19.9454V3.8686V3.02231C4 1.90586 4.90463 1 6.02316 1H15.3308C16.4494 1 17.354 1.90586 17.354 3.02231V3.8686V6.83C17.354 7.01226 17.2059 7.16 17.0231 7.16C16.8404 7.16 16.6923 7.01226 16.6923 6.83ZM4.66171 20.2754V20.7915C4.66171 21.5451 5.27169 22.1538 6.02316 22.1538H15.3308C16.0823 22.1538 16.6923 21.5451 16.6923 20.7915V20.2754H4.66171ZM14.9077 8.42929C12.9883 8.42929 11.4309 9.9855 11.4309 11.907C11.4309 13.8285 12.9883 15.3847 14.9077 15.3847C15.8538 15.3847 16.7119 15.0066 17.3389 14.3931C17.3469 14.383 17.3556 14.3733 17.3649 14.364C17.3738 14.3552 17.3831 14.3469 17.3927 14.3393C18.0062 13.7123 18.3845 12.854 18.3845 11.907C18.3845 9.9855 16.8271 8.42929 14.9077 8.42929ZM14.9077 16.0447C15.9317 16.0447 16.8685 15.673 17.5909 15.0573L20.1735 17.6399C20.3025 17.769 20.512 17.7693 20.6414 17.6405C20.7708 17.5118 20.771 17.3029 20.642 17.1739L18.0583 14.5901C18.6744 13.8676 19.0462 12.9305 19.0462 11.907C19.0462 9.6226 17.1942 7.76929 14.9077 7.76929C12.6212 7.76929 10.7692 9.6226 10.7692 11.907C10.7692 14.1914 12.6212 16.0447 14.9077 16.0447Z" fill="#274A79" stroke="#274A79" stroke-width="0.4" stroke-linecap="round" stroke-linejoin="round"/>
</svg>
