<svg width="24" height="24" viewBox="0 0 24 24" fill="none" xmlns="http://www.w3.org/2000/svg">
<path fill-rule="evenodd" clip-rule="evenodd" d="M15.5357 17.3214L15.5357 6.17857C15.5357 6.05036 15.4505 5.94643 15.3453 5.94643L2.01194 5.94643C1.90675 5.94643 1.82147 6.05036 1.82147 6.17857L1.82147 17.3214C1.82147 17.4496 1.90675 17.5536 2.01194 17.5536L15.3453 17.5536C15.4505 17.5536 15.5357 17.4496 15.5357 17.3214ZM16.1072 6.17857C16.1072 5.66574 15.7661 5.25 15.3453 5.25L2.01194 5.25C1.59116 5.25 1.25004 5.66574 1.25004 6.17857L1.25004 17.3214C1.25004 17.8343 1.59115 18.25 2.01194 18.25L15.3453 18.25C15.7661 18.25 16.1072 17.8343 16.1072 17.3214L16.1072 6.17857Z" fill="#274A79"/>
<path fill-rule="evenodd" clip-rule="evenodd" d="M15.8572 6.17857C15.8572 5.75528 15.584 5.5 15.3453 5.5L2.01194 5.5C1.7732 5.5 1.50004 5.75528 1.50004 6.17857L1.50004 17.3214C1.50004 17.7447 1.7732 18 2.01194 18L15.3453 18C15.584 18 15.8572 17.7447 15.8572 17.3214L15.8572 6.17857ZM15.3453 5C15.9481 5 16.3572 5.57619 16.3572 6.17857L16.3572 17.3214C16.3572 17.9238 15.9481 18.5 15.3453 18.5L2.01194 18.5C1.40911 18.5 1.00004 17.9238 1.00004 17.3214L1.00004 6.17857C1.00004 5.57619 1.40911 5 2.01194 5L15.3453 5ZM15.2857 6.19643L2.07147 6.19643L2.07147 17.3036L15.2857 17.3036L15.2857 6.19643ZM15.3453 5.69643C15.6325 5.69643 15.7857 5.96082 15.7857 6.17857L15.7857 17.3214C15.7857 17.5392 15.6325 17.8036 15.3453 17.8036L2.01194 17.8036C1.7247 17.8036 1.57147 17.5392 1.57147 17.3214L1.57147 6.17857C1.57147 5.96082 1.7247 5.69643 2.01194 5.69643L15.3453 5.69643Z" fill="#274A79"/>
<path fill-rule="evenodd" clip-rule="evenodd" d="M17.3455 17.6093H21.7355C22.2009 17.6093 22.5782 17.2339 22.5782 16.7709V6.71033C22.5782 6.2473 22.2009 5.87195 21.7355 5.87195H17.3455V6.50073L21.7355 6.50073C21.8518 6.50073 21.9462 6.59457 21.9462 6.71033V16.7709C21.9462 16.8867 21.8518 16.9805 21.7355 16.9805H17.3455V17.6093ZM17.3455 14.3865H18.7879C18.9624 14.3865 19.1039 14.2536 19.1039 14.0896C19.1039 13.9257 18.9624 13.7928 18.7879 13.7928H17.3455V14.3865ZM17.3455 12.2277H18.7879C18.9624 12.2277 19.1039 12.0948 19.1039 11.9308C19.1039 11.7669 18.9624 11.634 18.7879 11.634H17.3455V12.2277ZM17.3455 10.0688H18.7879C18.9624 10.0688 19.1039 9.93594 19.1039 9.772C19.1039 9.60807 18.9624 9.47517 18.7879 9.47517H17.3455V10.0688Z" fill="#274A79"/>
<path fill-rule="evenodd" clip-rule="evenodd" d="M17.0955 5.62195H21.7355C22.3378 5.62195 22.8282 6.10803 22.8282 6.71033V16.7709C22.8282 17.3732 22.3378 17.8593 21.7355 17.8593H17.0955V16.7305H21.6962V6.75073L17.0955 6.75073V5.62195ZM17.5955 6.12195V6.25073L21.7355 6.25073C21.9888 6.25073 22.1962 6.4553 22.1962 6.71033V16.7709C22.1962 17.0259 21.9888 17.2305 21.7355 17.2305H17.5955V17.3593H21.7355C22.0641 17.3593 22.3282 17.0947 22.3282 16.7709V6.71033C22.3282 6.38658 22.0641 6.12195 21.7355 6.12195H17.5955ZM17.0955 9.22517H18.7879C19.0856 9.22517 19.3539 9.45549 19.3539 9.772C19.3539 10.0885 19.0856 10.3188 18.7879 10.3188H17.0955V9.22517ZM17.5955 9.72517V9.81884H18.7879C18.8112 9.81884 18.8291 9.81013 18.8402 9.79968C18.8511 9.78949 18.8539 9.77969 18.8539 9.772C18.8539 9.76432 18.8511 9.75452 18.8402 9.74433C18.8291 9.73388 18.8112 9.72517 18.7879 9.72517H17.5955ZM17.0955 11.384H18.7879C19.0856 11.384 19.3539 11.6143 19.3539 11.9308C19.3539 12.2473 19.0856 12.4777 18.7879 12.4777H17.0955V11.384ZM17.5955 11.884V11.9777H18.7879C18.8112 11.9777 18.8291 11.9689 18.8402 11.9585C18.8511 11.9483 18.8539 11.9385 18.8539 11.9308C18.8539 11.9231 18.8511 11.9133 18.8402 11.9031C18.8291 11.8927 18.8112 11.884 18.7879 11.884H17.5955ZM17.0955 13.5428H18.7879C19.0856 13.5428 19.3539 13.7731 19.3539 14.0896C19.3539 14.4061 19.0856 14.6365 18.7879 14.6365H17.0955V13.5428ZM17.5955 14.0428V14.1365H18.7879C18.8112 14.1365 18.8291 14.1278 18.8402 14.1173C18.8511 14.1071 18.8539 14.0973 18.8539 14.0896C18.8539 14.0819 18.8511 14.0721 18.8402 14.0619C18.8291 14.0515 18.8112 14.0428 18.7879 14.0428H17.5955Z" fill="#274A79"/>
</svg>
