<svg width="40" height="30" viewBox="0 0 40 30" fill="none" xmlns="http://www.w3.org/2000/svg">
<path d="M10 29.0909C7.23636 29.0909 4.87879 28.1394 2.92727 26.2364C0.975757 24.3212 0 21.9879 0 19.2364C0 16.8727 0.709091 14.7636 2.12727 12.9091C3.55758 11.0545 5.42424 9.87273 7.72727 9.36364C8.49091 6.57576 10.0061 4.32121 12.2727 2.6C14.5515 0.866666 17.1273 0 20 0C23.5515 0 26.5576 1.23636 29.0182 3.70909C31.4909 6.1697 32.7273 9.17576 32.7273 12.7273C34.8242 12.9697 36.5576 13.8788 37.9273 15.4545C39.3091 17.0061 40 18.8242 40 20.9091C40 23.1879 39.2061 25.1212 37.6182 26.7091C36.0303 28.297 34.097 29.0909 31.8182 29.0909H21.8182C20.8242 29.0909 19.9697 28.7333 19.2545 28.0182C18.5394 27.3152 18.1818 26.4606 18.1818 25.4545V16.0909L15.2727 18.9091L12.7273 16.3636L20 9.09091L27.2727 16.3636L24.7273 18.9091L21.8182 16.0909V25.4545H31.8182C33.0909 25.4545 34.1636 25.0121 35.0364 24.1273C35.9212 23.2545 36.3636 22.1818 36.3636 20.9091C36.3636 19.6364 35.9212 18.5636 35.0364 17.6909C34.1636 16.8061 33.0909 16.3636 31.8182 16.3636H29.0909V12.7273C29.0909 10.2182 28.2061 8.07273 26.4364 6.29091C24.6667 4.52121 22.5212 3.63636 20 3.63636C17.4909 3.63636 15.3455 4.52121 13.5636 6.29091C11.7939 8.07273 10.9091 10.2182 10.9091 12.7273H10C8.24242 12.7273 6.74546 13.3515 5.50909 14.6C4.26061 15.8364 3.63636 17.3333 3.63636 19.0909C3.63636 20.8485 4.26061 22.3636 5.50909 23.6364C6.74546 24.8485 8.24242 25.4545 10 25.4545H14.5455V29.0909" fill="#002DD1"/>
</svg>
