<svg width="102" height="102" viewBox="0 0 102 102" fill="none" xmlns="http://www.w3.org/2000/svg">
<path fill-rule="evenodd" clip-rule="evenodd" d="M14.6287 23.7253V22.429C14.6287 20.9968 15.7892 19.8333 17.2229 19.8333H27.6014C29.0336 19.8333 30.1957 20.9968 30.1957 22.429V23.7253H92.4665C95.3324 23.7253 97.655 26.0494 97.655 28.9153V75.6178C97.655 78.4836 95.3324 80.8078 92.4665 80.8078H9.43851C6.57117 80.8078 4.25 78.4836 4.25 75.6178V28.9153C4.25 26.0494 6.57117 23.7253 9.43851 23.7253H14.6287Z" fill="url(#paint0_linear_5_5346)"/>
<path fill-rule="evenodd" clip-rule="evenodd" d="M40.5737 52.2658C40.5737 65.8767 51.6082 76.9142 65.2206 76.9142C78.833 76.9142 89.872 65.8767 89.872 52.2658C89.872 38.6534 78.833 27.6174 65.2206 27.6174C51.6082 27.6174 40.5737 38.6534 40.5737 52.2658Z" fill="#6C7C8B"/>
<path fill-rule="evenodd" clip-rule="evenodd" d="M65.2214 71.0777C54.8504 71.0777 46.4116 62.6405 46.4116 52.2664C46.4116 41.8953 54.8504 33.4536 65.2214 33.4536C75.597 33.4536 84.0342 41.8953 84.0342 52.2664C84.0342 62.6405 75.597 71.0777 65.2214 71.0777Z" fill="#E7EBEF"/>
<path fill-rule="evenodd" clip-rule="evenodd" d="M52.2476 52.2662C52.2476 59.4316 58.0549 65.239 65.2203 65.239C72.3857 65.239 78.1931 59.4316 78.1931 52.2662C78.1931 45.1008 72.3857 39.2935 65.2203 39.2935C58.0549 39.2935 52.2476 45.1008 52.2476 52.2662Z" fill="#2D2D2D"/>
<path opacity="0.573172" fill-rule="evenodd" clip-rule="evenodd" d="M50.3003 47.0852C50.3003 53.5407 55.5323 58.7727 61.9878 58.7727C68.4433 58.7727 73.6753 53.5407 73.6753 47.0852C73.6753 40.6297 68.4433 35.3977 61.9878 35.3977C55.5323 35.3977 50.3003 40.6297 50.3003 47.0852Z" fill="#F7F1D3"/>
<path fill-rule="evenodd" clip-rule="evenodd" d="M29.5635 36.6978C29.5635 38.1315 28.7783 39.2935 27.8096 39.2935H13.7861C12.8174 39.2935 12.0322 38.1315 12.0322 36.6978V34.105C12.0322 32.6713 12.8174 31.5093 13.7861 31.5093H27.8096C28.7783 31.5093 29.5635 32.6713 29.5635 34.105V36.6978Z" fill="white"/>
<defs>
<linearGradient id="paint0_linear_5_5346" x1="4.25" y1="19.8333" x2="4.25" y2="80.8078" gradientUnits="userSpaceOnUse">
<stop stop-color="#D4DAE0"/>
<stop offset="1" stop-color="#9DAEBF"/>
</linearGradient>
</defs>
</svg>
