<svg width="129" height="92" viewBox="0 0 129 92" fill="none" xmlns="http://www.w3.org/2000/svg">
<g filter="url(#filter0_d_5_5226)">
<rect x="4" y="4" width="55.6775" height="83.2971" rx="2" fill="#64D0A6"/>
<rect x="6.19238" y="6.19263" width="51.2935" height="78.913" rx="2" fill="url(#paint0_radial_5_5226)"/>
<rect x="14.9604" y="22.8521" width="2.19203" height="46.0326" rx="1.09601" fill="#65D0A4"/>
<rect x="10.5752" y="35.1262" width="2.19203" height="21.4819" rx="1.09601" fill="#65D0A4"/>
<mask id="mask0_5_5226" style="mask-type:alpha" maskUnits="userSpaceOnUse" x="21" y="17" width="21" height="26">
<rect x="21.9741" y="17.1519" width="19.7283" height="25.4275" rx="2" fill="white"/>
</mask>
<g mask="url(#mask0_5_5226)">
<rect x="21.9741" y="17.1519" width="19.7283" height="25.4275" rx="2" fill="white"/>
<path d="M20.7168 38.9424L31.7022 35.7314L42.2726 38.9424C42.2726 38.9424 40.4896 45.4891 40.4896 47.1365C40.4896 48.7839 40.0746 59.1443 39.6596 59.8037C39.2447 60.4631 38.9551 60.9571 38.9551 60.9571C34.2581 61.9474 29.3446 61.8341 24.2805 60.9571C24.2805 60.9571 23.0379 60.5447 23.0379 59.0627C23.0379 57.5807 22.1259 46.9303 22.1259 46.6833C22.1259 46.4363 20.7168 38.9424 20.7168 38.9424Z" fill="#F8C8DF"/>
<path d="M20.8011 38.9451C20.8011 38.9451 18.8562 39.2963 18.2953 41.2746C17.7344 43.2528 15.9332 53.8919 15.3427 55.4668C14.7384 57.0757 14.9573 58.2427 15.2811 59.2058C15.6049 60.1689 19.9142 66.9036 19.9142 66.9036C21.6128 68.5918 23.0219 64.2682 21.8112 63.2575C19.9461 61.0957 20.5458 58.2971 18.5781 56.3325C18.7422 56.2871 19.0683 58.7322 19.2302 58.5577C20.8034 56.865 22.4314 46.5884 22.4314 46.5884L20.8011 38.9451Z" fill="#F8C8DF"/>
<path d="M42.2742 38.9451C42.2742 38.9451 44.1598 39.3575 44.5337 41.5193C44.9077 43.6811 44.3901 54.9207 44.9373 57.2887C45.8949 61.4288 44.8757 65.0182 44.4402 66.192C44.0048 67.3659 43.5396 68.2632 43.5396 68.2632C41.5491 70.425 40.1195 66.3779 41.0521 64.7418C41.0521 64.7418 41.5924 64.1481 41.581 63.3504C41.556 61.5512 40.8651 58.9588 41.426 57.0123C41.6175 56.3483 42.5455 56.3325 42.1716 57.5675C41.7976 58.8025 41.3006 58.6801 41.3006 58.6801C41.3006 58.6801 39.1254 47.8235 39.871 46.4026C40.6166 44.9818 42.2742 38.9451 42.2742 38.9451Z" fill="#F8C8DF"/>
<path d="M37.4134 25.3575C37.7509 23.0167 36.5333 20.2045 35.3249 19.3684C34.3558 18.6976 31.7885 17.9385 30.2038 18.9809C26.7997 18.2535 24.6336 21.6435 25.0737 25.2329C25.6437 29.8851 27.7072 32.6678 31.4146 32.3891C34.39 32.1647 36.718 30.1638 37.4134 25.3575Z" fill="#450D2E"/>
<path d="M35.7047 26.7495C35.7047 26.7495 36.0695 25.587 36.6555 26.2034C37.2415 26.8198 36.7399 28.9181 36.0581 29.2943C35.4972 29.6025 35.4858 28.6031 35.4858 28.6031L35.7047 26.7495Z" fill="#A61770"/>
<path d="M35.8953 28.4321C35.8908 28.4321 35.8839 28.4321 35.8794 28.4298C35.8201 28.4208 35.7768 28.3641 35.7859 28.3052C35.95 27.2311 36.2214 26.6283 36.2328 26.6034C36.2579 26.549 36.324 26.5241 36.3787 26.549C36.4334 26.5739 36.4585 26.6396 36.4334 26.694C36.4311 26.7008 36.1621 27.2945 36.0025 28.3369C35.9957 28.3936 35.95 28.4321 35.8953 28.4321Z" fill="#BC5A9E"/>
<path d="M26.927 26.7495C26.927 26.7495 26.5622 25.587 25.9762 26.2034C25.3902 26.822 25.8919 28.9181 26.5736 29.2943C27.1345 29.6025 27.1459 28.6031 27.1459 28.6031L26.927 26.7495Z" fill="#A61770"/>
<path d="M26.7108 27.887C26.6538 27.887 26.606 27.8439 26.6014 27.7873C26.533 26.9624 26.1294 26.6814 26.1135 26.6701C26.0633 26.6361 26.0496 26.5681 26.0838 26.5183C26.118 26.4684 26.1864 26.4548 26.2366 26.4865C26.2571 26.5001 26.745 26.8287 26.8226 27.7691C26.8271 27.8303 26.7815 27.8824 26.7222 27.887C26.7177 27.887 26.7131 27.887 26.7108 27.887Z" fill="#BC5A9E"/>
<path d="M34.1921 35.8857L33.9573 32.6679L29.0323 32.6226L28.7222 36.0103C28.688 36.3797 28.4327 36.6901 28.0747 36.7944L26.7773 37.1728C26.7773 37.1728 26.8845 40.88 31.4994 40.7871C36.0846 40.6965 36.5338 37.2 36.5338 37.2L34.8328 36.6833C34.4726 36.5745 34.2195 36.2573 34.1921 35.8857Z" fill="url(#paint1_radial_5_5226)"/>
<path d="M26.6729 27.26C26.6729 28.8961 27.008 30.5571 27.8995 31.8238C28.8002 33.1041 30.2571 33.9811 31.3333 34.0196C32.4369 34.0604 34.0603 32.9569 35.0202 31.3978C35.7658 30.1855 35.914 28.6967 35.9961 27.26C36.1876 23.8496 33.9121 20.5842 31.4975 20.5842C29.0806 20.5842 26.6729 23.972 26.6729 27.26Z" fill="#A61770"/>
<path d="M33.5068 26.5694C33.5068 26.8504 33.6778 27.0793 33.8876 27.0793C34.0974 27.0793 34.2684 26.8504 34.2684 26.5694C34.2684 26.2884 34.0974 26.0596 33.8876 26.0596C33.6778 26.0596 33.5068 26.2884 33.5068 26.5694Z" fill="#4D0C30"/>
<path d="M28.6582 26.5697C28.6582 26.8507 28.8292 27.0795 29.039 27.0795C29.2487 27.0795 29.4197 26.8507 29.4197 26.5697C29.4197 26.2887 29.2487 26.0598 29.039 26.0598C28.8292 26.0598 28.6582 26.2887 28.6582 26.5697Z" fill="#4D0C30"/>
<path d="M30.0166 30.607C30.0326 30.7837 30.4225 31.6426 31.3778 31.6539C32.1735 31.663 32.7823 30.8721 32.7869 30.6251C32.7892 30.4688 32.1257 30.2897 31.3892 30.292C30.6983 30.292 30.0394 30.462 30.0166 30.607Z" fill="#BC5A9E"/>
<path d="M31.3876 31.0045C31.3785 31.0045 31.3693 31.0045 31.3579 31.0045C31.0091 31.0022 30.5257 30.8844 29.9261 30.651C29.9055 30.6419 29.8919 30.6374 29.885 30.6351C29.8417 30.6216 29.8189 30.574 29.8326 30.5309C29.8463 30.4879 29.8941 30.4652 29.9375 30.4788C29.9443 30.4811 29.9603 30.4879 29.9853 30.4969C30.5668 30.7235 31.0296 30.8391 31.3579 30.8391C31.7889 30.8436 32.3087 30.8074 32.7898 30.5468C32.8286 30.5264 32.881 30.54 32.9015 30.5808C32.9244 30.6216 32.9084 30.6714 32.8673 30.6918C32.3657 30.9637 31.839 31.0045 31.3876 31.0045Z" fill="#4D0C30"/>
<path d="M29.6933 26.6676C29.6614 26.6676 29.6317 26.6495 29.6181 26.62C29.6158 26.6177 29.463 26.2801 29.1871 26.194C29.0549 26.1509 28.909 26.1759 28.7585 26.2642C28.12 26.6404 27.9376 26.4546 27.908 26.4138C27.8806 26.3775 27.8898 26.3254 27.9262 26.2982C27.9627 26.271 28.0152 26.2801 28.0425 26.3163C28.0448 26.3163 28.1862 26.4093 28.6764 26.1215C28.8702 26.0082 29.0594 25.9787 29.2396 26.0354C29.5861 26.1464 29.764 26.5362 29.7708 26.552C29.7891 26.5928 29.7708 26.6427 29.7298 26.6608C29.7161 26.6653 29.7047 26.6676 29.6933 26.6676Z" fill="#4D0C30"/>
<path d="M33.2727 26.6666C33.2613 26.6666 33.2499 26.6644 33.2385 26.6598C33.1975 26.6417 33.177 26.5918 33.1975 26.5511C33.2043 26.5352 33.3822 26.1454 33.7288 26.0344C33.9089 25.9777 34.0981 26.0049 34.2919 26.1205C34.6134 26.3086 34.7343 26.329 34.7685 26.329C34.7799 26.3018 34.8072 26.2814 34.8392 26.2791C34.8848 26.2769 34.9235 26.3109 34.9281 26.3562C34.9304 26.3902 34.9167 26.4378 34.8665 26.4672C34.7958 26.5103 34.659 26.5239 34.2099 26.2587C34.0594 26.1704 33.9134 26.1454 33.7812 26.1885C33.5053 26.2769 33.3525 26.6122 33.3503 26.6145C33.3343 26.6485 33.3047 26.6666 33.2727 26.6666Z" fill="#4D0C30"/>
<path d="M30.7265 21.3806C28.809 21.6344 27.4957 23.7078 27.2038 24.689C26.8869 25.7518 27.0328 27.6689 27.0328 27.6689L25.854 25.0879C25.854 25.0879 26.1527 20.2453 27.9015 20.1932C30.3389 20.1207 30.7265 21.3806 30.7265 21.3806Z" fill="#450D2E"/>
<path d="M35.5381 24.5059C35.9075 25.2831 35.8733 26.5022 35.757 27.3226L36.5801 25.8496L36.3977 24.8503L35.5381 24.5059Z" fill="#450D2E"/>
<path d="M37.0061 22.0215L38.0047 22.7058C37.4188 20.8703 36.3927 20.1089 35.3234 19.3679L35.5058 20.7819C35.239 20.4964 34.9312 20.2585 34.5778 20.0931C32.2065 18.985 30.5785 19.7599 30.5785 19.7599C30.5785 19.7599 30.3026 20.5485 30.2867 21.0946L30.1772 21.0879C30.1772 21.0879 31.616 23.8252 33.8596 24.6025C33.6726 24.2263 33.2736 23.6462 33.0729 23.2769C34.5048 24.1719 35.9983 24.8359 36.468 25.6925C36.7689 26.2386 36.9855 26.0482 36.9878 25.1645L38.1757 26.3224C38.3673 25.3344 38.1028 23.3902 37.0061 22.0215Z" fill="#450D2E"/>
<path d="M37.0716 25.335C37.026 25.335 36.9826 25.3124 36.9553 25.2738C36.3693 24.3787 35.3684 23.6717 34.0596 23.2299C33.2319 22.9511 30.9747 21.9881 30.4822 20.9026C30.4502 20.8346 30.4822 20.7531 30.5506 20.7213C30.619 20.6896 30.701 20.7213 30.733 20.7893C31.1502 21.7071 33.2137 22.6543 34.1485 22.9693C35.5166 23.4315 36.5654 24.1748 37.1856 25.122C37.2266 25.1855 37.2084 25.2693 37.1445 25.3124C37.1217 25.3282 37.0967 25.335 37.0716 25.335Z" fill="#611649"/>
<path d="M37.1287 22.5343C37.0923 22.5343 37.0581 22.5207 37.0307 22.4935C36.5929 22.0494 35.6581 21.8364 34.7529 21.6301C34.4428 21.5599 34.1487 21.4919 33.8728 21.4149C31.5061 20.7577 30.6374 19.9125 30.6032 19.8762C30.5485 19.8218 30.5507 19.7357 30.6032 19.6836C30.6579 19.6292 30.7445 19.6292 30.797 19.6836C30.8061 19.6927 31.6589 20.5175 33.9458 21.152C34.2148 21.2268 34.5067 21.2925 34.8122 21.3628C35.7561 21.578 36.7297 21.8001 37.2245 22.3032C37.2769 22.3575 37.2769 22.4437 37.2222 22.498C37.1994 22.523 37.1652 22.5343 37.1287 22.5343Z" fill="#611649"/>
<path d="M25.9369 24.734C25.9278 24.734 25.9209 24.734 25.9118 24.7318C25.8366 24.7182 25.7864 24.6457 25.8001 24.5732C26.4134 21.2262 29.7104 20.6325 29.7446 20.6257C29.8199 20.6121 29.8905 20.6642 29.9042 20.7367C29.9179 20.8115 29.8655 20.8818 29.7925 20.8954C29.7606 20.8999 26.6528 21.4664 26.0737 24.6207C26.06 24.6865 26.0007 24.734 25.9369 24.734Z" fill="#611649"/>
<path d="M30.2923 21.3971C30.2307 21.3971 30.176 21.3564 30.1601 21.2974C29.9845 20.6607 29.8568 19.7361 30.078 19.2195C30.1076 19.1492 30.1897 19.1175 30.2581 19.147C30.3288 19.1764 30.3607 19.258 30.3311 19.326C30.1737 19.6908 30.2125 20.4545 30.4268 21.2227C30.4473 21.2952 30.404 21.3722 30.3311 21.3904C30.3174 21.3949 30.3037 21.3971 30.2923 21.3971Z" fill="#611649"/>
<path d="M22.4262 46.724C22.4217 46.724 22.4171 46.724 22.4125 46.724C22.3373 46.7172 22.2826 46.6492 22.2894 46.5744C22.4559 44.9474 20.7367 41.0725 20.7184 41.0339C20.6865 40.9637 20.7184 40.8844 20.7891 40.8526C20.8575 40.8209 20.9396 40.8527 20.9715 40.9229C21.0445 41.0838 22.7386 44.9021 22.5653 46.6016C22.5562 46.6719 22.4969 46.724 22.4262 46.724Z" fill="#CF9EC8"/>
<path d="M40.1784 52.3338C40.1761 52.3338 40.1738 52.3338 40.1693 52.3338C40.094 52.3293 40.0347 52.2636 40.0393 52.1888C40.0416 52.139 40.3517 47.1151 40.3927 45.1119C40.4338 43.0408 42.4083 41.4953 42.4927 41.4296C42.552 41.3843 42.6386 41.3934 42.6865 41.4545C42.7344 41.5135 42.723 41.5996 42.6614 41.6472C42.6409 41.663 40.7074 43.1813 40.6686 45.1187C40.6276 47.1265 40.3198 52.1571 40.3152 52.2069C40.3129 52.2772 40.2514 52.3338 40.1784 52.3338Z" fill="#CF9EC8"/>
<path d="M31.4973 41.8975C31.3194 41.8975 31.1439 41.8907 30.9706 41.8771C27.7101 41.6324 26.0069 39.5771 25.7652 37.651C25.7561 37.5762 25.8085 37.5082 25.886 37.4969C25.9613 37.4878 26.0297 37.5399 26.0411 37.617C26.2691 39.4321 27.8902 41.3696 30.9934 41.603C34.6027 41.8749 36.5454 39.6655 37.1085 37.6895C37.1291 37.617 37.2066 37.5739 37.2796 37.5943C37.3525 37.6147 37.3958 37.6918 37.3753 37.7643C36.5477 40.6603 33.9142 41.8975 31.4973 41.8975Z" fill="#CF9EC8"/>
<path d="M31.4854 27.3586L32.361 29.0333C32.4385 29.1805 32.3792 29.3618 32.231 29.4389C32.19 29.4593 32.1444 29.4729 32.0965 29.4729L31.0728 29.4933L31.4854 27.3586Z" fill="#BC5A9E"/>
<path opacity="0.09" d="M27.8267 29.5047C27.8336 29.9829 28.228 30.3636 28.7091 30.3568C29.1902 30.35 29.5733 29.9579 29.5664 29.4798C29.5596 29.0017 29.1652 28.621 28.6841 28.6278C28.2052 28.6346 27.8199 29.0289 27.8267 29.5047Z" fill="#020203"/>
<path opacity="0.09" d="M33.4059 29.5047C33.4127 29.9829 33.8071 30.3636 34.2882 30.3568C34.7693 30.35 35.1524 29.9579 35.1456 29.4798C35.1387 29.0017 34.7443 28.621 34.2632 28.6278C33.7821 28.6346 33.399 29.0289 33.4059 29.5047Z" fill="#020203"/>
</g>
<path d="M30.3588 69.092C30.0837 68.9674 30.007 68.7704 30.043 68.4989C30.1271 67.8672 30.2435 67.2456 30.5673 66.6716C30.7704 66.3119 31.0402 66.0132 31.492 65.8887C31.8518 65.7895 32.1893 65.883 32.5184 65.9927C33.1443 66.2022 33.6352 66.5657 33.9945 67.0767C34.1183 67.2527 34.2701 67.4126 34.4066 67.5815C34.587 67.8047 34.5743 68.0237 34.3754 68.1755C34.1722 68.3305 33.9045 68.3057 33.7088 68.0948C33.4427 67.8076 33.1982 67.5047 32.9311 67.2189C32.6977 66.9689 32.4258 66.758 32.0571 66.6859C31.7507 66.6263 31.6243 66.6759 31.4608 66.9197C31.1825 67.3343 31.0788 67.8 30.9931 68.2694C30.9704 68.3944 30.9566 68.5213 30.9482 68.6473C30.9339 68.8572 30.8148 68.9989 30.6128 69.0915C30.5276 69.092 30.4435 69.092 30.3588 69.092Z" fill="#AEB5C2"/>
<path d="M26.4317 59.7981C26.4323 60.3048 26.5756 60.7881 26.7037 61.2757C26.9211 62.1034 26.9349 62.9236 26.501 63.7065C26.1238 64.3868 25.5128 64.8315 24.7192 65.0739C24.452 65.1554 24.1891 65.0433 24.1134 64.832C24.0309 64.602 24.1505 64.393 24.442 64.2957C25.161 64.0557 25.6614 63.6287 25.8567 62.9489C25.999 62.4532 25.9604 61.9527 25.8186 61.4627C25.6244 60.7905 25.4863 60.1154 25.5408 59.4164C25.6466 58.0552 26.2434 56.8968 27.3232 55.9474C28.1485 55.2218 29.1363 54.7561 30.2732 54.5729C32.0968 54.279 33.73 54.6731 35.1579 55.7327C35.9732 56.3377 36.5488 57.1025 36.9033 58.0004C36.9424 58.1001 37.0049 58.174 37.0948 58.2408C37.963 58.8873 38.8285 59.5366 39.6956 60.1845C39.8305 60.2852 39.9385 60.3997 39.9305 60.5667C39.9231 60.7237 39.8385 60.8472 39.6829 60.9193C39.5173 60.9956 39.3512 60.9708 39.2057 60.8754C39.0581 60.7785 38.9206 60.6688 38.7793 60.5638C37.9699 59.9627 37.1498 59.3735 36.3705 58.7399C36.2303 58.6259 36.1335 58.4951 36.0706 58.3358C35.5352 56.9727 34.5067 56.0505 33.0068 55.5467C31.1065 54.9083 28.7897 55.5028 27.5306 56.9489C26.8 57.7866 26.4407 58.7361 26.4317 59.7981Z" fill="#AEB5C2"/>
<path d="M28.2531 59.8214C28.2642 60.2994 28.425 60.756 28.516 61.2236C28.6821 62.0738 28.8165 62.9244 28.761 63.7942C28.6747 65.1377 27.9362 66.0313 26.5469 66.4993C26.4157 66.5437 26.2834 66.5862 26.1496 66.6243C25.8914 66.6973 25.6443 66.5971 25.5591 66.3882C25.4724 66.1763 25.5819 65.9488 25.8358 65.8634C26.1511 65.7574 26.4702 65.6606 26.7638 65.5084C27.3976 65.1802 27.7224 64.6711 27.823 64.0337C27.9499 63.2312 27.8193 62.4411 27.6801 61.6501C27.5727 61.038 27.3547 60.444 27.351 59.8152C27.3405 58.0389 28.7361 56.4864 30.6634 56.1468C32.5384 55.8161 34.5604 56.8495 35.1731 58.4807C35.3773 59.0251 35.7508 59.4445 36.1857 59.8357C37.1396 60.693 38.1903 61.4492 39.2373 62.2097C39.3838 62.3161 39.5055 62.4311 39.4912 62.6215C39.4706 62.8977 39.1748 63.0733 38.8881 62.9702C38.8304 62.9492 38.7728 62.9211 38.7246 62.8858C37.5575 62.0375 36.3814 61.1978 35.3382 60.2217C34.9012 59.8128 34.562 59.3557 34.3414 58.8094C33.8621 57.6243 32.8791 56.9755 31.4914 56.9177C30.2053 56.8643 29.2636 57.4368 28.635 58.4321C28.3668 58.8595 28.2621 59.3309 28.2531 59.8214Z" fill="#AEB5C2"/>
<path d="M29.1612 59.8855C29.1882 58.8812 29.8421 58.1197 30.8299 57.8755C31.7864 57.6393 32.8022 58.009 33.3423 58.7934C33.3973 58.8735 33.4466 58.9599 33.4799 59.0491C33.8005 59.9027 34.4327 60.5634 35.1088 61.1961C36.1273 62.1488 37.2573 62.9881 38.4038 63.8101C38.5842 63.9394 38.7281 64.084 38.6683 64.3082C38.5874 64.6102 38.207 64.7094 37.9102 64.5005C37.5166 64.2233 37.1309 63.9365 36.7463 63.6498C35.8506 62.9819 34.9829 62.2872 34.193 61.5157C33.5259 60.864 32.9556 60.1646 32.6228 59.3115C32.3271 58.5525 31.3097 58.3025 30.5838 58.7714C30.1035 59.0816 29.9215 59.6412 30.1167 60.1822C30.468 61.1584 31.0854 61.9919 31.8155 62.7633C33.0233 64.0396 34.4422 65.1111 35.8871 66.1574C36.0077 66.2447 36.1331 66.3278 36.2479 66.4208C36.4664 66.5987 36.496 66.8273 36.332 67.0114C36.1749 67.188 35.8998 67.2104 35.6739 67.0453C35.0125 66.562 34.3465 66.0835 33.7026 65.5811C32.5831 64.708 31.5129 63.7896 30.6214 62.7161C30.0458 62.0229 29.5665 61.2824 29.2686 60.4542C29.1946 60.2466 29.1591 60.0353 29.1612 59.8855Z" fill="#AEB5C2"/>
<path d="M31.3063 52.8491C32.6067 52.8472 33.7601 53.0247 34.8393 53.5123C35.8302 53.9598 36.6074 54.6259 37.2597 55.4236C37.7941 56.0772 38.221 56.7948 38.7501 57.4512C38.9892 57.748 39.2622 58.0013 39.6442 58.1531C39.9182 58.2618 40.0124 58.4832 39.9055 58.6941C39.7934 58.9145 39.5532 58.9832 39.2643 58.8849C38.6982 58.6922 38.312 58.311 37.9729 57.8835C37.474 57.2542 37.0624 56.5739 36.5598 55.9465C35.7006 54.8749 34.5986 54.1211 33.1474 53.8358C31.1931 53.4512 29.3404 53.6726 27.6559 54.6826C26.1904 55.561 25.2476 56.7876 24.8238 58.3315C24.7207 58.7074 24.6529 59.0886 24.6477 59.4775C24.6461 59.5786 24.636 59.6802 24.6186 59.7804C24.5773 60.0223 24.3916 60.1674 24.1503 60.1526C23.8996 60.1373 23.7229 59.9641 23.7276 59.7141C23.7345 59.3592 23.7657 59.0052 23.8292 58.6535C24.09 57.2079 24.7905 55.9589 25.9248 54.9183C27.1019 53.8382 28.5277 53.1755 30.1927 52.9331C30.5979 52.8739 31.0042 52.862 31.3063 52.8491Z" fill="#AEB5C2"/>
<path d="M38.1336 54.0842C38.1262 54.2474 38.0289 54.3734 37.8511 54.4363C37.6734 54.4993 37.4924 54.4774 37.3681 54.3428C36.2788 53.1625 34.7959 52.6191 33.2039 52.2751C31.6258 51.934 30.0397 51.9445 28.4668 52.3257C27.4362 52.5747 26.495 52.986 25.6824 53.6191C25.4417 53.8066 25.2232 54.0117 25.0375 54.245C24.9592 54.3433 24.8729 54.4363 24.7301 54.4621C24.5317 54.4974 24.3592 54.4511 24.2497 54.297C24.1317 54.1315 24.1555 53.9597 24.2804 53.7994C24.6327 53.3476 25.075 52.9788 25.5702 52.6587C26.6643 51.9526 27.888 51.527 29.2106 51.3443C31.611 51.0127 33.8996 51.3319 36.0539 52.3605C36.7348 52.6859 37.3655 53.0766 37.8749 53.6076C38.0024 53.7398 38.1373 53.8748 38.1336 54.0842Z" fill="#AEB5C2"/>
<path d="M30.8571 49.6219C32.6294 49.494 34.3203 49.8151 35.9598 50.401C36.2328 50.4983 36.3635 50.6472 36.3413 50.8413C36.3085 51.1276 36.0328 51.2817 35.7085 51.1858C35.1826 51.0303 34.671 50.8389 34.1341 50.7116C33.1553 50.4792 32.1617 50.3747 31.1497 50.4072C30.5243 50.4272 29.8985 50.4167 29.2742 50.4816C28.7234 50.5388 28.2023 50.6672 27.7124 50.9014C27.5145 50.9959 27.3124 51.0851 27.1082 51.1686C26.8469 51.276 26.5892 51.203 26.4734 50.9969C26.3607 50.796 26.4411 50.5746 26.6871 50.4487C27.6468 49.9573 28.6621 49.6314 29.7805 49.6223C30.1397 49.6195 30.4984 49.6219 30.8571 49.6219Z" fill="#AEB5C2"/>
<path d="M30.9385 59.7535C30.9422 59.5565 31.0713 59.3995 31.2633 59.3537C31.4607 59.3065 31.6241 59.3666 31.7448 59.5112C31.786 59.5603 31.813 59.6219 31.8342 59.6815C32.1288 60.5131 32.6701 61.2077 33.306 61.8513C34.2948 62.8523 35.4688 63.6615 36.6411 64.4721C36.9316 64.6729 37.2194 64.8757 37.4913 65.0961C37.7114 65.2741 37.7453 65.4997 37.5839 65.6834C37.4225 65.8666 37.1559 65.8962 36.9321 65.7302C35.6894 64.8084 34.3551 63.9864 33.2134 62.9535C32.3643 62.1853 31.6067 61.359 31.139 60.3456C31.0485 60.1491 30.9549 59.9501 30.9385 59.7535Z" fill="#AEB5C2"/>
<path d="M30.152 64.5923C30.0843 65.745 29.7568 66.8122 28.8754 67.692C28.6378 67.9296 28.3521 68.1114 28.0167 68.2264C27.7369 68.3223 27.4771 68.2507 27.3713 68.0403C27.2602 67.8194 27.3586 67.5952 27.6437 67.4873C28.0596 67.3304 28.3564 67.0584 28.5765 66.7197C29.0743 65.952 29.3214 65.1271 29.2193 64.2316C29.2071 64.1257 29.1701 64.0217 29.1463 63.9167C29.0886 63.6586 29.215 63.4616 29.4748 63.4034C29.7261 63.3471 29.9398 63.4735 30.0234 63.7273C30.1165 64.0093 30.1509 64.2974 30.152 64.5923Z" fill="#AEB5C2"/>
<path d="M39.446 56.9006C39.3069 56.8973 39.1625 56.8262 39.09 56.6721C38.8318 56.1258 38.5382 55.5967 38.2075 55.0824C38.0689 54.8663 38.1504 54.6368 38.3678 54.5251C38.581 54.4154 38.8265 54.4612 38.9725 54.6673C39.3503 55.2002 39.6656 55.7637 39.9074 56.3572C40.019 56.6311 39.8005 56.8997 39.446 56.9006Z" fill="#AEB5C2"/>
<path d="M24.1766 60.9722C24.3925 60.9722 24.566 61.0953 24.6094 61.2913C24.6919 61.6649 24.821 62.0232 25.0057 62.3667C25.1443 62.6239 25.0596 62.8538 24.8088 62.9617C24.5745 63.0623 24.3316 62.9655 24.1904 62.7179C23.9602 62.3157 23.8158 61.8877 23.7338 61.4431C23.6878 61.194 23.901 60.9722 24.1766 60.9722Z" fill="#AEB5C2"/>
</g>
<g filter="url(#filter1_d_5_5226)">
<rect x="69.3232" y="4" width="55.6775" height="83.2971" rx="2" fill="#64D0A6"/>
<rect x="71.5156" y="6.19263" width="51.2935" height="78.913" rx="2" fill="url(#paint2_radial_5_5226)"/>
<rect x="82.9146" y="27.6738" width="2.19203" height="11.837" rx="1.09601" fill="#65D0A4"/>
<rect x="87.2998" y="21.5356" width="2.19203" height="17.9746" rx="1.09601" fill="#65D0A4"/>
<rect x="100.888" y="12.7678" width="2.19203" height="26.7428" rx="1.09601" fill="#65D0A4"/>
<rect x="105.273" y="17.1516" width="2.19203" height="22.3587" rx="1.09601" fill="#65D0A4"/>
<rect x="109.658" y="12.7678" width="2.19203" height="26.3043" rx="1.09601" fill="#65D0A4"/>
<rect x="109.658" y="57.0469" width="2.19203" height="21.0435" rx="1.09601" fill="#65D0A4"/>
<rect x="105.273" y="60.1155" width="2.19203" height="17.9746" rx="1.09601" fill="#65D0A4"/>
<rect x="100.888" y="57.0469" width="2.19203" height="21.0435" rx="1.09601" fill="#65D0A4"/>
<rect x="87.2998" y="49.5945" width="2.19203" height="28.4964" rx="1.09601" fill="#65D0A4"/>
<rect x="82.9146" y="56.6089" width="2.19203" height="21.4819" rx="1.09601" fill="#65D0A4"/>
</g>
<defs>
<filter id="filter0_d_5_5226" x="0" y="0" width="63.6777" height="91.2971" filterUnits="userSpaceOnUse" color-interpolation-filters="sRGB">
<feFlood flood-opacity="0" result="BackgroundImageFix"/>
<feColorMatrix in="SourceAlpha" type="matrix" values="0 0 0 0 0 0 0 0 0 0 0 0 0 0 0 0 0 0 127 0" result="hardAlpha"/>
<feOffset/>
<feGaussianBlur stdDeviation="2"/>
<feComposite in2="hardAlpha" operator="out"/>
<feColorMatrix type="matrix" values="0 0 0 0 0 0 0 0 0 0 0 0 0 0 0 0 0 0 0.15 0"/>
<feBlend mode="normal" in2="BackgroundImageFix" result="effect1_dropShadow_5_5226"/>
<feBlend mode="normal" in="SourceGraphic" in2="effect1_dropShadow_5_5226" result="shape"/>
</filter>
<filter id="filter1_d_5_5226" x="65.3232" y="0" width="63.6777" height="91.2971" filterUnits="userSpaceOnUse" color-interpolation-filters="sRGB">
<feFlood flood-opacity="0" result="BackgroundImageFix"/>
<feColorMatrix in="SourceAlpha" type="matrix" values="0 0 0 0 0 0 0 0 0 0 0 0 0 0 0 0 0 0 127 0" result="hardAlpha"/>
<feOffset/>
<feGaussianBlur stdDeviation="2"/>
<feComposite in2="hardAlpha" operator="out"/>
<feColorMatrix type="matrix" values="0 0 0 0 0 0 0 0 0 0 0 0 0 0 0 0 0 0 0.15 0"/>
<feBlend mode="normal" in2="BackgroundImageFix" result="effect1_dropShadow_5_5226"/>
<feBlend mode="normal" in="SourceGraphic" in2="effect1_dropShadow_5_5226" result="shape"/>
</filter>
<radialGradient id="paint0_radial_5_5226" cx="0" cy="0" r="1" gradientUnits="userSpaceOnUse" gradientTransform="translate(22.1459 87.8053) rotate(-90) scale(88.881 57.7727)">
<stop stop-color="#BFEBD0"/>
<stop offset="1" stop-color="#CEF6D1"/>
</radialGradient>
<radialGradient id="paint1_radial_5_5226" cx="0" cy="0" r="1" gradientUnits="userSpaceOnUse" gradientTransform="translate(31.368 32.8713) scale(2.74441 2.72753)">
<stop stop-color="#450D2E"/>
<stop offset="0.4513" stop-color="#73154F"/>
<stop offset="0.8214" stop-color="#971767"/>
<stop offset="1" stop-color="#A61770"/>
</radialGradient>
<radialGradient id="paint2_radial_5_5226" cx="0" cy="0" r="1" gradientUnits="userSpaceOnUse" gradientTransform="translate(87.4691 87.8053) rotate(-90) scale(88.881 57.7727)">
<stop stop-color="#BFEBD0"/>
<stop offset="1" stop-color="#CEF6D1"/>
</radialGradient>
</defs>
</svg>
